<?xml version="1.0" encoding="UTF-8"?> <!-- Creator: CorelDRAW 2017 --> <svg xmlns="http://www.w3.org/2000/svg" xmlns:xlink="http://www.w3.org/1999/xlink" xml:space="preserve" width="241.51mm" height="83.935mm" style="shape-rendering:geometricPrecision; text-rendering:geometricPrecision; image-rendering:optimizeQuality; fill-rule:evenodd; clip-rule:evenodd" viewBox="0 0 24150.96 8393.5"> <defs> <style type="text/css"> <![CDATA[ .fil1 {fill:#FEFEFE;fill-rule:nonzero} .fil0 {fill:#E85222;fill-rule:nonzero} .fil2 {fill:#B22222;fill-rule:nonzero} ]]> </style> </defs> <g id="Слой_x0020_1"> <metadata id="CorelCorpID_0Corel-Layer"></metadata> <polygon class="fil0" points="8393.36,8393.5 -0,8393.5 -0,0 8393.36,0 "></polygon> <path class="fil1" d="M855.29 5777.22c-81.92,0 -148.2,-12.17 -198.76,-36.16 -50.37,-24.34 -87.1,-50.02 -109.68,-77.43 -22.61,-27.38 -33.72,-44.2 -33.72,-50.52l66.14 -81.95c0,3.1 10.23,16.05 30.77,38.66 20.42,22.62 49.49,43.29 86.85,62.31 37.18,18.83 81.25,28.39 131.66,28.39 114.61,0 171.84,-64.1 171.84,-192.4 0,-67.31 -11.22,-114.09 -33.84,-140.44 -22.61,-26.21 -57.01,-39.41 -103.36,-39.41l-151.31 12.63 0 -121.42 165.49 14.07c28.47,-0.92 52.88,-17.32 73.41,-48.86 20.43,-31.4 30.77,-79.83 30.77,-144.95 0,-62.2 -11.5,-105.98 -34.65,-131.7 -23.28,-25.96 -61.63,-38.77 -115.25,-38.77 -29.46,0 -60.5,5.01 -93.06,15 -32.67,10.09 -60.43,20.42 -83.61,31.64 -23.11,11.01 -37.85,18.1 -44.06,21.2l-20.53 -107.24c0,-1.06 15.27,-8.01 45.75,-20.39 30.48,-12.7 66.82,-24.34 108.8,-34.82 42.01,-10.44 85.02,-15.74 129.33,-15.74 108.3,0 191.91,24.17 250.82,72.5 58.77,48.33 88.23,114.09 88.23,197.2 0,58.88 -15.49,107.99 -46.49,147.39 -31.01,39.41 -70.14,71.37 -117.44,95.36 130.35,31.71 195.51,111.55 195.51,239.85 0,59.94 -16.3,113.07 -48.86,159.35 -32.71,46.36 -78.67,82.31 -138.15,107.99 -59.3,25.75 -126.9,38.66 -202.6,38.66z"></path> <path class="fil1" d="M1336.5 5646.31l105.44 0c44.31,-92.5 75.6,-205.85 94.05,-339.98 18.38,-134.02 27.56,-324.59 27.56,-571.67l591.39 0 0 911.65 127.81 0 -37.85 389.46 -123.01 0 -34.79 -275.97 -561.58 0 -62.9 275.97 -108.94 0 -17.18 -389.46zm600.71 0l0 -798.02 -245.85 0c-2.23,202.85 -12.7,364.49 -31.58,484.93 -18.98,120.43 -48.57,224.72 -88.37,313.09l365.8 0z"></path> <path class="fil1" d="M2839.42 5777.22c-148.06,0 -262.54,-47.06 -343.08,-141.25 -80.36,-94.05 -120.44,-223.13 -120.44,-387.14 0,-163.97 40.08,-293.3 120.44,-387.91 80.54,-94.83 195.02,-142 343.08,-142 149.37,0 264.79,47.45 346.29,142.67 81.42,95.21 122.13,224.29 122.13,387.24 0,163.09 -40.71,291.93 -122.13,386.4 -81.5,94.54 -196.92,141.99 -346.29,141.99zm0 -112.04c81.03,0 139.17,-32.81 174.31,-98.46 35.27,-65.76 52.84,-171.73 52.84,-317.89 0,-145.1 -17.78,-250.79 -53.58,-316.97 -35.71,-66.29 -93.56,-99.48 -173.57,-99.48 -78.67,0 -135.96,33.19 -170.96,99.48 -35.27,66.18 -52.84,171.87 -52.84,316.97 0,146.16 17.21,252.13 51.96,317.89 34.75,65.65 92.11,98.46 171.84,98.46z"></path> <path class="fil1" d="M3486.17 4734.67l313.86 0c116.7,0 207.4,29.06 272.14,87.48 64.59,58.32 96.9,144.85 96.9,259.51 0,81.91 -17.81,149.72 -53.48,203.48 -35.8,53.66 -81.56,92.78 -137.23,117.47 -55.7,24.7 -113.59,37.08 -173.56,37.08l-100.9 0 0 320.11 -217.73 0 0 -1025.13zm293.3 604.13c52.77,0 91.51,-18.14 116.84,-54.54 25.18,-36.2 37.85,-100.65 37.85,-193.18 0,-93.56 -12.67,-159.21 -37.85,-197.06 -25.33,-37.89 -64.07,-56.87 -116.84,-56.87l-75.57 0 0 501.65 75.57 0z"></path> <path class="fil1" d="M4725.88 5777.22c-148.2,0 -262.43,-47.06 -342.97,-141.25 -80.47,-94.05 -120.68,-223.13 -120.68,-387.14 0,-163.97 40.21,-293.3 120.68,-387.91 80.54,-94.83 194.77,-142 342.97,-142 149.37,0 264.76,47.45 346.29,142.67 81.56,95.21 122.24,224.29 122.24,387.24 0,163.09 -40.68,291.93 -122.24,386.4 -81.53,94.54 -196.92,141.99 -346.29,141.99zm0 -112.04c81.04,0 139.03,-32.81 174.31,-98.46 35.28,-65.76 52.85,-171.73 52.85,-317.89 0,-145.1 -17.82,-250.79 -53.62,-316.97 -35.67,-66.29 -93.53,-99.48 -173.54,-99.48 -78.81,0 -135.82,33.19 -170.95,99.48 -35.28,66.18 -52.85,171.87 -52.85,316.97 0,146.16 17.29,252.13 51.93,317.89 34.64,65.65 92.01,98.46 171.87,98.46z"></path> <path class="fil1" d="M5372.63 4734.67l312.32 0c80.99,0 148.48,12.45 202.74,36.97 54.01,24.69 94.22,57.39 120.68,97.93 26.25,40.46 39.3,84.42 39.3,131.58 0,52.57 -14.46,97.3 -43.46,134.09 -28.79,36.83 -65.33,66.82 -109.4,89.93 59.8,18.87 107.64,48.86 143.41,89.81 35.8,41.24 53.62,90.99 53.62,150.04 0,89.29 -33.97,160.76 -101.81,214.49 -67.74,53.52 -166.83,80.29 -297.22,80.29l-320.18 0 0 -1025.13zm346.92 455.78c29.5,0 56.09,-13.86 79.77,-41.76 23.63,-27.77 35.38,-72.89 35.38,-134.91 0,-60.96 -14.22,-105.69 -42.51,-134.12 -28.43,-28.26 -66.29,-42.51 -113.59,-42.51l-88.38 0 0 353.3 129.33 0zm-31.54 466.98c56.77,0 101.57,-16.65 134.17,-49.89 32.56,-32.91 48.82,-83.18 48.82,-150.42 0,-114.72 -46.74,-171.98 -140.33,-171.98l-140.45 0 0 372.29 97.79 0z"></path> <path class="fil1" d="M6270.05 4734.67l217.73 0 0 392.71 74.15 0c129.33,0 228.6,25.19 298,75.7 69.49,50.56 104.28,126.16 104.28,227.19 0,105.17 -33.38,186.48 -100.3,243.56 -66.67,57.36 -165.27,85.97 -295.77,85.97l-298.09 0 0 -1025.13zm293.44 922.76c62.01,0 106.75,-17.18 133.98,-51.44 27.45,-34.11 40.96,-90.56 40.96,-169.51 0,-77.68 -14.04,-132.22 -42.51,-163.19 -28.4,-31.01 -72.99,-46.53 -133.99,-46.53l-74.15 0 0 430.67 75.71 0z"></path> <polygon class="fil1" points="7142.27,5759.79 7142.27,4734.65 7757.34,4734.65 7757.34,4848.28 7360.01,4848.28 7360.01,5185.78 7710.18,5185.78 7710.18,5296.13 7360.01,5296.13 7360.01,5646.3 7779.53,5646.3 7779.53,5759.79 "></polygon> <polygon class="fil1" points="2304.84,7505 2304.84,6479.76 3071.4,6479.76 3071.4,7505 2853.8,7505 2853.8,6593.36 2522.58,6593.36 2522.58,7505 "></polygon> <path class="fil1" d="M3314.29 6479.78l313.87 0c116.7,0 207.4,29.17 272.13,87.59 64.49,58.32 96.91,144.75 96.91,259.37 0,82.05 -17.78,149.86 -53.59,203.51 -35.66,53.63 -81.42,92.75 -137.26,117.44 -55.67,24.7 -113.46,37.08 -173.39,37.08l-101.04 0 0 320.25 -217.63 0 0 -1025.24zm293.34 604.1c52.6,0 91.47,-18.1 116.7,-54.4 25.19,-36.3 37.85,-100.65 37.85,-193.29 0,-93.59 -12.66,-159.24 -37.85,-197.06 -25.23,-38.03 -64.1,-56.76 -116.7,-56.76l-75.71 0 0 501.51 75.71 0z"></path> <path class="fil1" d="M4554.01 7522.3c-148.2,0 -262.68,-47.02 -343.08,-141.11 -80.36,-94.19 -120.54,-223.27 -120.54,-387.28 0,-163.93 40.18,-293.44 120.54,-387.91 80.4,-94.69 194.88,-142 343.08,-142 149.26,0 264.65,47.59 346.18,142.67 81.67,95.21 122.24,224.33 122.24,387.24 0,163.13 -40.57,291.78 -122.24,386.4 -81.53,94.68 -196.92,141.99 -346.18,141.99zm0 -111.9c80.89,0 139.03,-32.91 174.31,-98.74 35.13,-65.62 52.77,-171.59 52.77,-317.75 0,-145.1 -17.85,-250.79 -53.51,-316.97 -35.81,-66.29 -93.7,-99.34 -173.57,-99.34 -78.81,0 -135.92,33.05 -171.1,99.34 -35.27,66.18 -52.84,171.87 -52.84,316.97 0,146.16 17.35,252.13 51.96,317.75 34.75,65.83 92.11,98.74 171.98,98.74z"></path> <path class="fil1" d="M5610.76 7522.3c-154.56,0 -272.28,-46.49 -353.17,-139.56 -81,-93.17 -121.57,-220.55 -121.57,-382.48 0,-107.1 18.35,-201.44 55.18,-282.33 36.79,-81.03 90.45,-143.68 160.86,-187.75 70.56,-44.06 154.17,-66.18 250.79,-66.18 48.33,0 96.03,5.97 142.81,18.1 46.78,12.14 87.24,25.33 121.5,39.55 34.07,14.07 51.15,21.69 51.15,22.72l-22.09 115.14c-7.37,-4.12 -25.22,-12.41 -53.65,-24.3 -28.26,-12.14 -62.27,-23.99 -101.71,-35.49 -39.4,-11.64 -76.45,-17.36 -111.09,-17.36 -58.81,0 -106.71,13.09 -143.54,39.3 -36.73,26.35 -64.35,69.5 -82.87,129.36 -18.45,59.94 -27.62,140.44 -27.62,241.37 0,148.35 21.55,253.9 64.73,316.97 43.15,63.05 109.82,94.69 200.27,94.69 50.38,0 94.97,-10.83 133.35,-32.42 38.28,-21.59 69.29,-45.08 93.07,-70.91 23.6,-25.75 35.48,-40.21 35.48,-43.32l69.29 75.74c0,5.15 -13.83,24.13 -41.73,56.73 -27.91,32.56 -68.62,62.76 -122.24,90.7 -53.66,27.9 -119.42,41.73 -197.2,41.73z"></path> <polygon class="fil1" points="6285.79,7505 6285.79,6593.36 6009.81,6593.36 6009.81,6479.76 6779.68,6479.76 6779.68,6593.36 6505.08,6593.36 6505.08,7505 "></polygon> <path class="fil1" d="M7322.15 7522.3c-148.24,0 -262.72,-47.02 -342.98,-141.11 -80.5,-94.19 -120.79,-223.27 -120.79,-387.28 0,-163.93 40.29,-293.44 120.79,-387.91 80.26,-94.69 194.74,-142 342.98,-142 149.22,0 264.75,47.59 346.18,142.67 81.38,95.21 122.34,224.33 122.34,387.24 0,163.13 -40.96,291.78 -122.34,386.4 -81.43,94.68 -196.96,141.99 -346.18,141.99zm0 -111.9c80.89,0 138.99,-32.91 174.27,-98.74 35.17,-65.62 52.84,-171.59 52.84,-317.75 0,-145.1 -17.92,-250.79 -53.58,-316.97 -35.81,-66.29 -93.67,-99.34 -173.53,-99.34 -78.96,0 -135.82,33.05 -171.1,99.34 -35.28,66.18 -52.85,171.87 -52.85,316.97 0,146.16 17.32,252.13 51.93,317.75 34.75,65.83 92.15,98.74 172.02,98.74z"></path> <path class="fil2" d="M10777.54 3534.12c3.39,-3.49 5.29,-8.11 5.15,-12.91l-6.42 -1408.08c0,-10.09 -8.29,-18.24 -18.38,-18.24l-190.57 0c-7.37,0 -14.08,4.41 -16.83,11.36l-480.3 1168.01 -480.28 -1168.01c-2.71,-6.95 -9.31,-11.36 -16.82,-11.36l-201.44 0 -1.02 0c-2.19,0.25 -4.41,0.25 -6.46,0.78 -7.62,2.33 -12.95,9.42 -12.95,17.46l-6.56 1408.08c0,4.8 1.91,9.42 5.29,12.91 3.64,3.35 8.29,5.29 13.02,5.29l119.17 0c10.05,0 18.24,-8.01 18.24,-18.06l4.13 -1114 454.59 1120.56c2.71,6.99 9.52,11.5 16.89,11.5l132.05 0c7.51,0 14.39,-4.51 17.11,-11.5l454.69 -1125.85 6.07 1119.29c0.14,10.05 8.29,18.06 18.35,18.06l160.23 0c4.94,0 9.56,-1.94 13.05,-5.29z"></path> <path class="fil2" d="M11171.8 3539.43l805.81 0c10.06,0 18.06,-8.15 18.06,-18.24l0 -104c0,-10.09 -8,-18.35 -18.06,-18.35l-622.83 0 0 -522.32 525.4 0c10.05,0 18.34,-8.11 18.34,-18.2l0 -99.63c0,-10.09 -8.29,-18.2 -18.34,-18.2l-525.4 0 0 -505.14 575.24 0c9.81,0 18.14,-8.12 18.14,-18.21l0 -104.03c0,-10.09 -8.33,-18.2 -18.14,-18.2l-758.22 0c-10.09,0 -18.24,8.11 -18.24,18.2l0 1408.08c0,10.09 8.15,18.24 18.24,18.24z"></path> <path class="fil2" d="M12569.92 2235.35l403.19 0 0 1163.47 -572.74 0c50.95,-116.53 91.23,-262.29 119.42,-433.53 29.99,-179.99 46.5,-425.49 50.13,-729.94zm-421.22 1670.16l97.65 0c9.31,0 17.08,-6.98 18.1,-16.3l37.22 -349.78 843.77 0 22.76 349.01c0.52,9.7 8.53,17.07 18.34,17.07l105.97 0c9.81,0 17.82,-7.51 18.35,-17.21l25.82 -470.08c0.28,-5.05 -1.27,-9.95 -4.87,-13.55 -3.63,-3.63 -8.29,-5.85 -13.44,-5.85l-146.29 0 0 -1285.7c0,-10.09 -8.26,-18.21 -18.07,-18.21l-717.16 0c-10.12,0 -18.38,8.12 -18.38,18.21 0,351.19 -14.99,628.26 -45.22,823.77 -28.97,188.63 -72.64,344.1 -129.72,461.93l-105.73 0c-4.62,0 -9.56,2.08 -12.87,5.71 -3.39,3.35 -5.19,8.26 -5.19,13.16l10.83 470.11c0,9.81 8.25,17.71 18.13,17.71z"></path> <path class="fil2" d="M13593.84 3539.43l155.85 0c7.23,0 13.69,-4.13 16.55,-10.62l10.05 -22.33 641.95 -1108.68 0 1123.39c0,10.09 8.05,18.24 18.13,18.24l162.25 0c10.33,0 18.62,-8.15 18.62,-18.24l0 -1408.08c0,-10.09 -8.29,-18.2 -18.62,-18.2l-153.5 0c-7.23,0 -13.93,4.12 -16.54,10.69l-10.34 22.22 -641.95 1106.77 0 -1121.48c0,-10.09 -8.01,-18.2 -18.1,-18.2l-164.35 0c-10.34,0 -18.35,8.11 -18.35,18.2l0 1408.08c0,10.09 8.01,18.24 18.35,18.24z"></path> <path class="fil2" d="M16108.96 3398.83l-144.21 0 0 -1285.7c0,-10.09 -8.26,-18.24 -18.35,-18.24l-164.64 0c-10.09,0 -18.62,8.15 -18.62,18.24l0 1285.7 -574.22 0 0 -1285.7c0,-10.09 -8.25,-18.24 -18.1,-18.24l-164.64 0c-10.05,0 -18.31,8.15 -18.31,18.24l0 1408.08c0,10.05 8.26,18.2 18.31,18.2l927.56 0 22.47 349.04c0.74,9.67 8.54,17.04 18.35,17.04l105.94 0c9.87,0 17.56,-7.51 18.38,-17.18l28.18 -470.11c0.25,-4.91 -1.55,-9.92 -4.94,-13.55 -3.38,-3.63 -8.25,-5.82 -13.16,-5.82z"></path> <path class="fil2" d="M17391.3 2094.9l-154.02 0c-7.24,0 -13.45,4.12 -16.55,10.72l-9.81 22.23 -641.98 1106.48 0 -1121.19c0,-10.13 -8.26,-18.24 -18.06,-18.24l-164.89 0c-9.81,0 -18.1,8.11 -18.1,18.24l0 1408.07c0,10.06 8.29,18.21 18.1,18.21l155.85 0c7.24,0 13.69,-4.13 16.76,-10.62l10.13 -22.33 641.95 -1108.82 -0.29 1123.56c0,10.06 8.26,18.21 18.38,18.21l162.53 0c9.81,0 18.1,-8.15 18.1,-18.21l0 -1408.07c0,-10.13 -8.29,-18.24 -18.1,-18.24z"></path> <path class="fil2" d="M18770.85 2094.9l-164.39 0c-10.06,0 -18.07,8.11 -18.07,18.24l0 614.29 -607.09 0 0 -614.29c0,-10.13 -8.26,-18.24 -18.31,-18.24l-164.4 0c-10.33,0 -18.34,8.11 -18.34,18.24l0 1408.07c0,10.06 8.01,18.21 18.34,18.21l164.4 0c10.05,0 18.31,-8.15 18.31,-18.21l0 -657.61 607.09 0 0 657.61c0,10.06 8.01,18.21 18.07,18.21l164.39 0c10.34,0 18.34,-8.15 18.34,-18.21l0 -1408.07c0,-10.13 -8,-18.24 -18.34,-18.24z"></path> <path class="fil2" d="M20121.43 3210.18c-5.15,-5.68 -12.91,-10.23 -19.9,-7.23 -7.02,2.57 -11.39,7.23 -11.39,14.85 -0.78,1.55 -6.42,12.17 -46.78,54.68 -32.56,34.61 -77.26,67.7 -132.82,98.32 -54.79,30.09 -119.91,45.33 -192.79,45.33 -141.08,0 -247.86,-47.94 -325.65,-146.76 -78.04,-98.74 -117.58,-248.1 -117.58,-443.51 0,-198.72 38.77,-351.33 115.53,-453.81 75.46,-100.75 181.44,-151.94 314.75,-151.94 54.29,0 108.59,8.68 162.6,25.19 53.97,16.93 102.58,35.52 143.4,55.45 43.43,20.68 55.35,27.38 58.46,29.32 2.82,2.72 6.66,4.41 10.79,4.9 8.82,1.31 17.85,-5.68 19.65,-14.85l19.65 -107.39c0,-13.29 0,-13.54 -74.97,-51.04 -44.2,-21.94 -97.93,-42.12 -160.23,-59.69 -62.76,-17.71 -128.94,-26.6 -196.92,-26.6 -124.28,0 -235.16,31.11 -329.25,92.88 -94.29,61.53 -167.95,150.39 -219.14,264.38 -50.62,113.34 -76.24,247.08 -76.24,397.37 0,225.98 56.34,405.97 166.97,535.23 111.38,129.96 269.03,195.86 468.53,195.86 100.79,0 188.66,-19.61 261.26,-58.52 71.62,-38.24 127.46,-80.01 166.2,-124.18 60.99,-68.9 60.99,-78.81 60.99,-86.82 0,-4.55 -1.55,-8.68 -4.65,-12.17l-60.47 -69.25z"></path> <path class="fil2" d="M20886.9 2741.89l485.1 -617.54c4.38,-5.43 5.15,-12.91 2.3,-19.12 -3.32,-6.46 -9.53,-10.34 -16.51,-10.34l-132.3 0c-5.71,0 -10.9,2.58 -14.49,7.09l-471.88 612.74 -140.65 124.6 0 -726.19c0,-10.09 -8.26,-18.24 -18.31,-18.24l-164.89 0c-10.05,0 -18.34,8.15 -18.34,18.24l0 1408.08c0,10.05 8.29,18.2 18.34,18.2l164.89 0c10.05,0 18.31,-8.15 18.31,-18.2l0 -509.27 140.65 -118.36 465.14 638.35c3.38,4.77 8.78,7.48 14.46,7.48l206.24 0c6.73,0 12.94,-3.74 16.05,-9.95 3.1,-6.06 2.57,-13.3 -1.03,-18.83l-553.08 -768.74z"></path> <path class="fil2" d="M22720.24 2094.9l-153.99 0c-7.23,0 -13.44,4.12 -16.54,10.72l-9.85 22.23 -641.98 1106.98 0 -1121.69c0,-10.13 -8.26,-18.24 -18.06,-18.24l-164.89 0c-10.06,0 -18.1,8.11 -18.1,18.24l0 1408.07c0,10.06 8.04,18.21 18.1,18.21l156.1 0c7.23,0 13.97,-4.13 16.51,-10.62l10.34 -22.33 641.98 -1108.43 -0.24 1123.17c0,10.06 8,18.21 18.34,18.21l162.28 0c10.09,0 18.13,-8.15 18.13,-18.21l0 -1408.07c0,-10.13 -8.04,-18.24 -18.13,-18.24z"></path> <path class="fil2" d="M23423.73 1948.36c48.05,33.73 116.8,50.91 204.15,50.91 88.41,0 158.19,-17.18 206.73,-50.91 48.08,-33.73 80.4,-69.53 96.16,-106.47 20.4,-48.61 22.97,-65.65 22.97,-75.35 0,-9.42 -6.95,-17.32 -16.51,-18.21l-130 -13.05c-3.6,-0.39 -10.05,1.17 -13.93,4.66 -3.92,3.49 -5.96,8.39 -5.96,13.55l0 10.86c0,2.33 -0.78,6.46 -2.09,12.81 -1.27,7.09 -3.84,15.87 -7.23,25.18 -22.96,51.05 -72.11,75.85 -150.14,75.85 -76.48,0 -124.04,-24.02 -146.26,-74.29 -4.66,-9.85 -7.76,-18.35 -9.03,-25.47 -1.31,-6.95 -1.84,-11.75 -1.84,-14.08l0 -10.86c0,-5.16 -2.08,-10.06 -5.96,-13.55 -3.84,-3.49 -10.05,-5.19 -14.18,-4.66l-130.03 13.05c-9.53,0.89 -16.55,8.79 -16.55,18.21 0,9.7 2.86,26.74 23.04,75.46 16.01,37.11 48.57,72.74 96.66,106.36z"></path> <path class="fil2" d="M24132.87 2094.9l-154.03 0c-7.23,0 -13.97,4.12 -16.54,10.72l-10.34 22.23 -641.7 1106.98 0 -1121.69c0,-10.13 -8.01,-18.24 -18.34,-18.24l-164.36 0c-10.34,0 -18.38,8.11 -18.38,18.24l0 1408.07c0,10.06 8.04,18.21 18.38,18.21l156.1 0c7.23,0 13.44,-4.13 16.51,-10.62l10.09 -22.33 641.7 -1108.96 0 1123.7c0,10.06 8.26,18.21 18.38,18.21l162.53 0c9.8,0 18.09,-8.15 18.09,-18.21l0 -1408.07c0,-10.13 -8.29,-18.24 -18.09,-18.24z"></path> <path class="fil2" d="M10465.62 6005.42l-144.21 0 0 -1285.84c0,-10.09 -8.26,-18.23 -18.35,-18.23l-164.61 0c-10.12,0 -18.23,8.14 -18.23,18.23l0 1285.84 -574.36 0 0 -1285.84c0,-10.09 -8.19,-18.23 -18.24,-18.23l-164.64 0c-10.06,0 -18.31,8.14 -18.31,18.23l0 1408.08c0,10.06 8.25,18.2 18.31,18.2l927.28 0 22.75 349.18c0.63,9.53 8.64,17.01 18.34,17.01l106.08 0c9.71,0 17.71,-7.48 18.24,-17.15l28.19 -470.11c0.35,-5.04 -1.55,-9.91 -4.94,-13.58 -3.35,-3.7 -8.25,-5.79 -13.3,-5.79z"></path> <path class="fil2" d="M11548.59 6005.42l-622.83 0 0 -522.32 525.67 0c9.81,0 18.1,-8.11 18.1,-18.2l0 -99.77c0,-10.09 -8.29,-18.2 -18.1,-18.2l-525.67 0 0 -505.11 575.27 0c10.09,0 18.35,-8.15 18.35,-18.24l0 -104c0,-10.09 -8.26,-18.23 -18.35,-18.23l-758.26 0c-10.05,0 -18.2,8.14 -18.2,18.23l0 1408.08c0,10.06 8.15,18.2 18.2,18.2l805.82 0c10.34,0 18.38,-8.14 18.38,-18.2l0 -103.89c0,-10.09 -8.04,-18.35 -18.38,-18.35z"></path> <path class="fil2" d="M12813.9 4701.35l-164.89 0c-9.81,0 -18.1,8.12 -18.1,18.24l0 614.29 -606.81 0 0 -614.29c0,-10.12 -8.25,-18.24 -18.34,-18.24l-164.61 0c-9.84,0 -18.1,8.12 -18.1,18.24l0 1408.08c0,10.05 8.26,18.2 18.1,18.2l164.61 0c10.09,0 18.34,-8.15 18.34,-18.2l0 -657.61 606.81 0 0 657.61c0,10.05 8.29,18.2 18.1,18.2l164.89 0c10.05,0 18.1,-8.15 18.1,-18.2l0 -1408.08c0,-10.12 -8.05,-18.24 -18.1,-18.24z"></path> <path class="fil2" d="M14003.22 4701.35l-968.38 0c-10.05,0 -18.34,8.12 -18.34,18.24l0 104c0,10.09 8.29,18.2 18.34,18.2l382.24 0 0 1285.88c0,10.05 8.25,18.2 18.34,18.2l164.61 0c10.33,0 18.38,-8.15 18.38,-18.2l0 -1285.88 384.81 0c9.8,0 18.09,-8.11 18.09,-18.2l0 -104c0,-10.12 -8.29,-18.24 -18.09,-18.24z"></path> <path class="fil2" d="M14404.81 4833.16l137.48 0c91.02,0 161.78,27.52 209.62,81.63 48.86,54.83 73.38,141.36 73.38,257.53 0,237.03 -93.31,352.14 -285.05,352.14l-135.43 0 0 -691.3zm155.08 -131.8l-338.06 0c-9.81,0 -18.07,8.12 -18.07,18.21l0 1408.07c0,10.06 8.26,18.24 18.07,18.24l164.88 0c9.85,0 18.1,-8.18 18.1,-18.24l0 -475.65 159.21 0c80.36,0 156.88,-16.15 227.4,-48.19 71.86,-32.31 131.06,-85.65 176,-158.68 44.98,-72.63 67.7,-166.54 67.7,-279.36 0,-151.84 -42.37,-268.53 -125.84,-346.96 -83.46,-77.93 -201.04,-117.44 -349.39,-117.44z"></path> </g> </svg> 